# xmcd CD database file
#
# Track frame offsets:
#	150
#	11098
#	21194
#	37148
#	46963
#	55302
#	93609
#	102919
#	112556
#	122488
#	136153
#	145073
#
# Disc length: 2082 seconds
#
# Revision: 0
# Processed by: cddbd v1.5.2PL0 Copyright (c) Steve Scherf et al.
# Submitted via: CDex 1.50beta10
#
DISCID=9a08200c
DTITLE=Duke Garwood - Holy Week
DYEAR=2004
DGENRE=Blues
TTITLE0=01-Blow Blossom
TTITLE1=02-Rise and Woman
TTITLE2=03-Lulabies In Ice
TTITLE3=04-Twisted With Fever
TTITLE4=05-Crawled Out Loose
TTITLE5=06-Angles And Demons
TTITLE6=07-Stone Cold Bazookas
TTITLE7=08-Straight Time
TTITLE8=09-To The Cold
TTITLE9=10-Straight Time
TTITLE10=11-Mirror Long Sunsets
TTITLE11=12-One Ton Fly
EXTD=YEAR: 2004
EXTT0=
EXTT1=
EXTT2=
EXTT3=
EXTT4=
EXTT5=
EXTT6=
EXTT7=
EXTT8=
EXTT9=
EXTT10=
EXTT11=
PLAYORDER=
